<svg xmlns="http://www.w3.org/2000/svg" width="32" height="24" viewBox="0 0 32 24" fill="none">
  <path d="M25.4388 13.2046C25.4388 12.5664 25.3822 11.9528 25.2771 11.3636H16.8975V14.845H21.6858C21.4795 15.97 20.8527 16.9232 19.9104 17.5614V19.8196H22.7858C24.4682 18.2528 25.4388 15.9454 25.4388 13.2046Z" fill="#4285F4"/>
  <path d="M16.8972 22C19.2995 22 21.3135 21.194 22.7855 19.8196L19.9101 17.5614C19.1134 18.1014 18.0943 18.4204 16.8972 18.4204C14.5798 18.4204 12.6184 16.8372 11.9188 14.71H8.94629V17.0418C10.4103 19.9832 13.4192 22 16.8972 22Z" fill="#34A853"/>
  <path d="M11.9188 14.71C11.7408 14.17 11.6398 13.5932 11.6398 13C11.6398 12.4068 11.7408 11.83 11.9188 11.29V8.95818H8.94631C8.34379 10.1732 8 11.5477 8 13C8 14.4522 8.34379 15.8268 8.94631 17.0418L11.9188 14.71Z" fill="#FBBC04"/>
  <path d="M16.8972 7.57957C18.2034 7.57957 19.3763 8.03362 20.2984 8.92543L22.8503 6.34405C21.3095 4.89181 19.2954 4 16.8972 4C13.4192 4 10.4103 6.01681 8.94629 8.95819L11.9188 11.29C12.6184 9.16276 14.5798 7.57957 16.8972 7.57957Z" fill="#E94235"/>
</svg>