<svg width="20" height="20" viewBox="0 0 20 20" fill="none" xmlns="http://www.w3.org/2000/svg">
<g id="Icon/Search">
<path id="icon" fill-rule="evenodd" clip-rule="evenodd" d="M8.33329 15C4.65139 15 1.66663 12.0152 1.66663 8.33329C1.66663 4.65139 4.65139 1.66663 8.33329 1.66663C12.0152 1.66663 15 4.65139 15 8.33329C15 9.87389 14.4774 11.2924 13.5998 12.4213L18.0892 16.9107L16.9107 18.0892L12.4213 13.5998C11.2924 14.4774 9.87389 15 8.33329 15ZM13.3333 8.33329C13.3333 11.0947 11.0947 13.3333 8.33329 13.3333C5.57187 13.3333 3.33329 11.0947 3.33329 8.33329C3.33329 5.57187 5.57187 3.33329 8.33329 3.33329C11.0947 3.33329 13.3333 5.57187 13.3333 8.33329Z" fill="#B6C5D1"/>
</g>
</svg>
